<svg width="40" height="40" viewBox="0 0 40 40" fill="none" xmlns="http://www.w3.org/2000/svg">
<path d="M19.9987 30.3319C23.6806 30.3319 26.6654 27.3471 26.6654 23.6652C26.6654 19.9833 23.6806 16.9985 19.9987 16.9985C16.3168 16.9985 13.332 19.9833 13.332 23.6652C13.332 27.3471 16.3168 30.3319 19.9987 30.3319Z" stroke="#161616" stroke-width="2.5" stroke-miterlimit="10" stroke-linecap="round" stroke-linejoin="round"/>
<path d="M20.4154 21.582V23.132C20.4154 23.7154 20.1154 24.2654 19.5987 24.5654L18.332 25.332" stroke="#161616" stroke-width="2.5" stroke-miterlimit="10" stroke-linecap="round" stroke-linejoin="round"/>
<path d="M13.3347 36.6667H26.668C33.368 36.6667 34.568 33.9833 34.918 30.7167L36.168 17.3833C36.618 13.3167 35.4513 10 28.3347 10H11.668C4.55134 10 3.38467 13.3167 3.83467 17.3833L5.08467 30.7167C5.43467 33.9833 6.63467 36.6667 13.3347 36.6667Z" stroke="#161616" stroke-width="2.5" stroke-miterlimit="10" stroke-linecap="round" stroke-linejoin="round"/>
<path d="M13.332 10.0002V8.66683C13.332 5.71683 13.332 3.3335 18.6654 3.3335H21.332C26.6654 3.3335 26.6654 5.71683 26.6654 8.66683V10.0002" stroke="#161616" stroke-width="2.5" stroke-miterlimit="10" stroke-linecap="round" stroke-linejoin="round"/>
<path d="M36.0875 18.3335C33.2042 20.4335 30.0042 21.9002 26.6875 22.7335" stroke="#161616" stroke-width="2.5" stroke-miterlimit="10" stroke-linecap="round" stroke-linejoin="round"/>
<path d="M4.36719 18.7827C7.15052 20.6827 10.1839 22.0327 13.3339 22.7994" stroke="#161616" stroke-width="2.5" stroke-miterlimit="10" stroke-linecap="round" stroke-linejoin="round"/>
</svg>
