<svg width="41" height="40" viewBox="0 0 41 40" fill="none" xmlns="http://www.w3.org/2000/svg">
<path d="M37.069 24.999C37.069 31.449 31.8523 36.6657 25.4023 36.6657L27.1523 33.749" stroke="#161616" stroke-width="2.5" stroke-linecap="round" stroke-linejoin="round"/>
<path d="M3.73438 14.9992C3.73438 8.54919 8.95104 3.33252 15.401 3.33252L13.651 6.24919" stroke="#161616" stroke-width="2.5" stroke-linecap="round" stroke-linejoin="round"/>
<path d="M23.2344 7.41406L29.8677 11.2474L36.4344 7.43075" stroke="#161616" stroke-width="2.5" stroke-linecap="round" stroke-linejoin="round"/>
<path d="M29.8672 18.029V11.229" stroke="#161616" stroke-width="2.5" stroke-linecap="round" stroke-linejoin="round"/>
<path d="M28.2984 3.68252L24.2984 5.89911C23.3984 6.39911 22.6484 7.66577 22.6484 8.6991V12.9325C22.6484 13.9658 23.3818 15.2325 24.2984 15.7325L28.2984 17.9492C29.1484 18.4325 30.5484 18.4325 31.4151 17.9492L35.4151 15.7325C36.3151 15.2325 37.0651 13.9658 37.0651 12.9325V8.6991C37.0651 7.66577 36.3318 6.39911 35.4151 5.89911L31.4151 3.68252C30.5651 3.21585 29.1651 3.21585 28.2984 3.68252Z" stroke="#161616" stroke-width="2.5" stroke-linecap="round" stroke-linejoin="round"/>
<path d="M4.32031 25.75L10.937 29.5833L17.5203 25.7667" stroke="#161616" stroke-width="2.5" stroke-linecap="round" stroke-linejoin="round"/>
<path d="M10.9336 36.365V29.5649" stroke="#161616" stroke-width="2.5" stroke-linecap="round" stroke-linejoin="round"/>
<path d="M9.38437 22.0175L5.38438 24.2341C4.48438 24.7341 3.73438 26.0007 3.73438 27.0341V31.2675C3.73438 32.3008 4.46772 33.5674 5.38438 34.0674L9.38437 36.2841C10.2344 36.7675 11.6344 36.7675 12.501 36.2841L16.501 34.0674C17.401 33.5674 18.151 32.3008 18.151 31.2675V27.0341C18.151 26.0007 17.4177 24.7341 16.501 24.2341L12.501 22.0175C11.6344 21.5508 10.2344 21.5508 9.38437 22.0175Z" stroke="#161616" stroke-width="2.5" stroke-linecap="round" stroke-linejoin="round"/>
</svg>
