<svg width="128" height="128" viewBox="0 0 128 128" fill="none" xmlns="http://www.w3.org/2000/svg">
<path d="M63.1102 118.058C92.3925 118.058 116.131 93.7047 116.131 63.6631C116.131 33.6216 92.3925 9.26807 63.1102 9.26807C33.8279 9.26807 10.0898 33.6216 10.0898 63.6631C10.0898 93.7047 33.8279 118.058 63.1102 118.058Z" fill="white"/>
<path d="M60 22.5L65 10.5C70 10.8333 83.9 14.1 99.5 24.5C115.1 34.9 117.333 56.8333 116.5 66.5L108.5 69L104 73C104 74.5 104.1 77.7 104.5 78.5C104.9 79.3 104.333 82.8333 104 84.5H98C97.6667 83.6667 97 81.9 97 81.5C97 81.1 96.3333 77.3333 96 75.5L93.5 68V60.5L92 57.5L86.5 58.5L80 61.5L76.5 60.5L74 53L69.5 49.5V45L66 42.5L63 37L65 32L59 28L60 22.5Z" fill="#A3FFDD"/>
<path d="M42.5 21L44.5 14C41.6667 14.6667 34.4 17.3 28 22.5C21.6 27.7 15.6667 38.6667 13.5 43.5L26 50.5L23 56.5L21.5 65L26 73L29 77L34 75.5V68V57.5L38 61.5L49 74.5L47 63L46 54L47 46.5L50 41L49 37L45 33.5L42.5 29V21Z" fill="#A3FFDD"/>
<path d="M75.5 79.5H69.5V86.5L67 92L69.5 96.5L67 100V104.5L74 107.5L85.5 113.5L94.5 109L101.5 102L94.5 100L87.5 96.5L86.5 90L81 84.5L75.5 79.5Z" fill="#A3FFDD"/>
<path d="M41.7872 11.9298C19.8526 20.9732 6.93443 44.3363 7.9722 67.6456C8.49782 79.526 12.6421 90.7932 20.7219 99.6478C26.5644 106.056 33.8557 110.881 41.74 114.406C52.623 119.278 64.7325 121.434 76.5388 118.981C89.4232 116.306 100.636 108.476 108.218 97.8149C118.804 82.9088 121.594 62.0862 115.468 44.9428C106.432 19.6658 77.8259 3.81634 51.6122 8.97147C48.2496 9.63187 44.9678 10.6562 41.7872 11.9298C39.3343 12.9136 41.147 16.5997 43.5931 15.6226C66.8889 6.28272 94.9557 16.6536 107.685 38.0693C114.397 49.3702 115.906 62.7331 113.272 75.4895C112.49 79.2699 111.358 83.0032 109.882 86.5747C109.552 87.3766 109.195 88.165 108.817 88.9467C108.622 89.3645 109.08 88.4413 108.858 88.8726C108.763 89.0546 108.662 89.2432 108.568 89.4252C108.251 90.0249 107.921 90.6112 107.577 91.1975C102.483 99.9915 94.949 107.343 85.69 111.65C73.5266 117.303 59.7391 116.98 47.3466 112.303C40.9111 109.877 34.9608 106.663 29.5698 102.343C20.7893 95.3148 14.7851 85.638 12.8173 74.5393C9.17169 53.9997 17.8579 30.8723 35.8166 19.5984C38.2897 18.0485 40.8976 16.7345 43.5931 15.6226C46.0393 14.6118 44.2333 10.9257 41.7872 11.9298Z" fill="#161616"/>
<path d="M62.7026 9.41642C61.7525 12.6173 60.681 15.771 59.468 18.8776C58.6526 20.9599 57.4936 23.1095 57.1903 25.3535C56.9073 27.3886 57.7631 29.3092 59.3265 30.6165C60.1217 31.2836 61.0584 31.7082 61.9748 32.1799C62.3185 32.3551 62.6622 32.5168 62.9789 32.7324C63.4102 33.0289 63.1743 32.8403 63.1676 32.9211C63.1002 33.9319 61.8872 35.0573 61.4155 35.9333C60.8023 37.0722 60.5125 38.3054 60.8023 39.5925C61.2807 41.7084 63.2282 42.8203 65.014 43.7098C65.5801 43.9929 66.7054 44.35 67.0761 44.8891C67.6084 45.6708 66.8402 46.6884 66.7795 47.5981C66.5976 50.2127 68.5316 51.6211 70.6813 52.551C71.2878 52.8139 72.5344 53.1104 72.8579 53.7775C73.3363 54.7681 72.5142 56.6212 72.5142 57.6927C72.5142 60.5364 74.4887 62.922 77.1976 63.7104C80.0683 64.546 83.1277 63.36 85.2571 61.4057C86.962 59.8558 88.4378 57.3895 90.9446 59.1011C93.5054 60.8464 91.2007 64.0608 91.0929 66.4463C90.9716 69.1014 92.3059 71.251 93.7008 73.3872C94.314 74.3239 95.0148 75.3145 95.3585 76.3927C95.81 77.8213 95.217 79.2162 95.0957 80.6448C94.8666 83.374 96.3221 85.7595 99.0918 86.3121C102.272 86.9455 105.002 84.9643 106.235 82.1206C107.407 79.3981 107.118 76.3253 107.32 73.4344C107.414 72.0597 107.765 71.3925 108.924 70.5569C111.181 68.9127 114.254 68.3871 116.929 67.9154C119.53 67.4639 118.742 63.4274 116.134 63.8856C112.151 64.5797 106.976 65.6511 104.496 69.2361C102.232 72.5112 103.863 76.7161 102.555 80.2607C102.178 81.285 101.444 82.4036 100.217 82.3497C98.7818 82.2891 99.1794 80.9413 99.3546 79.8968C99.8128 77.2081 99.4894 75.0247 98.0742 72.6662C96.996 70.8804 95.1631 68.9666 95.1968 66.7698C95.217 65.2805 95.9717 63.8452 96.2009 62.3761C96.4098 61.0284 96.2615 59.6604 95.655 58.4272C94.6577 56.4056 92.6428 55.0039 90.4594 54.5659C87.8583 54.0403 85.6952 55.0915 83.9161 56.9447C82.3797 58.535 79.3068 61.4731 77.1168 59.0539C76.2475 58.097 76.7394 56.7762 76.9079 55.6374C77.11 54.2492 77.0426 52.8543 76.3081 51.6278C75.8094 50.799 75.0682 50.1723 74.2326 49.7006C73.37 49.2154 72.1099 48.9795 71.3484 48.373C70.5869 47.7665 71.0789 47.3757 71.2743 46.3986C71.4967 45.2597 71.436 44.1883 70.8767 43.164C69.9063 41.3782 67.9319 40.6976 66.2607 39.7946C65.8563 39.579 65.0005 39.2286 64.8455 38.7434C64.5962 37.9415 65.789 36.7959 66.1798 36.1625C67.5141 33.9926 67.8443 31.3914 65.6811 29.6596C64.4345 28.6622 61.7727 28.1366 61.2942 26.5935C60.8697 25.2053 62.5341 22.3413 63.1137 20.879C64.421 17.5838 65.5733 14.2414 66.5774 10.845C67.3254 8.31801 63.4574 6.92309 62.7094 9.45686L62.7026 9.41642Z" fill="#161616"/>
<path d="M43.2569 12.1385C40.8916 18.5403 38.0276 27.5163 42.2933 33.7968C43.2838 35.2591 44.6653 36.3575 45.9996 37.4963C46.5926 37.995 47.5629 38.6756 47.8258 39.4573C48.102 40.2727 47.509 41.0409 47.071 41.6946C46.4443 42.6178 45.7704 43.4871 45.3055 44.5114C44.7529 45.7176 44.7529 46.8969 44.7596 48.1974C44.7596 49.68 44.079 50.6571 43.668 52.025C43.2704 53.3391 43.2569 54.7273 43.4658 56.0818C43.9779 59.3568 45.5615 62.4499 46.2691 65.7047C46.9969 69.0538 47.3271 72.4434 47.2732 75.8667C48.4794 75.4691 49.6789 75.0782 50.8784 74.6807C45.7233 68.6158 40.8175 62.342 36.1677 55.8729C35.5613 55.0238 33.9979 54.9092 33.2701 55.6572C29.2875 59.7813 31.9493 64.6804 33.3375 69.2695C33.9237 71.2102 34.4898 74.5257 31.7134 74.9502C29.4627 75.2939 27.6028 73.6362 26.6055 71.7897C25.3521 69.4581 24.7389 66.6885 24.3211 64.0941C23.8426 61.1021 24.1728 58.3527 25.716 55.7179C26.5987 54.2084 27.6432 52.8404 27.6096 51.0075C27.5893 49.7878 27.1311 48.6692 26.4101 47.692C23.8224 44.2014 18.7212 42.6986 14.7857 41.5059C12.2587 40.7444 10.8638 44.6057 13.4043 45.3739C15.8707 46.1219 18.4112 46.9238 20.6552 48.2109C21.3223 48.595 22.0164 49.0196 22.5825 49.5385C22.879 49.8147 23.2766 50.3606 23.3035 50.4077C23.3709 50.5088 23.5528 51.0008 23.4787 50.7716C23.3978 50.5088 23.5394 51.0277 23.5259 51.1086C23.4989 51.3444 23.1418 52.0722 22.8588 52.5237C21.3628 54.9294 20.1902 57.4699 20.0083 60.3406C19.8128 63.4 20.4732 66.5201 21.3223 69.4514C22.0636 72.0121 23.0811 74.5931 25.0219 76.4934C28.4182 79.829 34.8335 80.2738 37.2055 75.4893C38.5533 72.7736 37.8322 69.6603 36.8618 66.9446C36.0869 64.768 33.9372 60.846 35.9521 58.7705C34.9885 58.6964 34.0181 58.629 33.0545 58.5549C37.7042 65.0241 42.6032 71.2978 47.7651 77.3627C48.8703 78.6633 51.3434 77.9894 51.3703 76.1767C51.4579 70.3813 50.5752 64.6939 48.6816 59.2153C48.2031 57.8338 47.6034 56.4322 47.4619 54.9699C47.3203 53.4941 48.0347 52.4361 48.4794 51.0884C48.9107 49.7878 48.7153 48.5883 48.8163 47.2675C48.9107 46.0545 49.6452 45.1987 50.3191 44.2283C51.4916 42.5369 52.4081 40.5962 51.8286 38.5071C51.2625 36.4855 49.5172 35.1243 47.9807 33.8305C45.8109 31.9975 44.7529 30.5757 44.3823 27.7656C43.7556 22.9946 45.5009 17.9338 47.1249 13.5334C48.0414 11.0536 44.1734 9.67211 43.2569 12.152V12.1385Z" fill="#161616"/>
<path d="M102.705 99.5469C98.83 99.4391 94.5307 99.2571 90.9726 97.5455C89.8472 97.0064 88.5938 96.1775 88.1693 94.9376C87.92 94.1963 88.0817 93.4416 88.0884 92.6734C88.1019 91.6625 88.021 90.6517 87.7582 89.6746C86.1948 83.8726 80.4198 79.5463 74.867 77.8751C72.9263 77.2888 70.4666 76.7767 68.5933 77.8347C65.5811 79.5328 67.5488 82.6461 67.5488 85.2001C67.5488 87.2554 66.0999 88.5762 65.4261 90.3957C64.6781 92.424 65.5541 94.1289 66.8075 95.7327C67.0164 96.0023 67.724 96.629 67.6903 97.0131C67.6701 97.3096 67.542 97.2085 67.3736 97.4444C66.821 98.2193 65.9652 98.563 65.5137 99.4997C64.6646 101.265 65.015 103.348 66.0865 104.931C68.1283 107.93 71.4775 108.105 74.5368 109.042C78.6475 110.288 82.3605 112.573 85.8849 114.972C88.075 116.461 90.4066 113.078 88.2165 111.589C85.0627 109.446 81.7675 107.445 78.2297 106.003C76.2215 105.18 74.1595 104.897 72.1109 104.277C71.0799 103.967 68.7078 102.903 69.1593 101.434C69.3345 100.874 70.123 100.537 70.5408 100.14C71.282 99.4256 71.7403 98.5495 71.8144 97.5118C71.9694 95.443 70.6486 94.2165 69.5906 92.6531C69.1054 91.9456 69.2604 91.8175 69.6849 91.0695C70.2173 90.1396 70.7968 89.2433 71.1473 88.2191C71.6661 86.6894 71.747 85.0721 71.4977 83.4885C71.4033 82.882 71.2349 82.2957 71.1001 81.7027C70.9181 80.8941 71.1877 80.7054 70.7025 81.3388C70.5947 81.4803 70.6014 81.4938 70.5138 81.4399C70.5677 81.4736 70.9114 81.359 70.999 81.3523C71.0327 81.3523 71.6459 81.3725 72.0031 81.4197C73.0543 81.5612 74.0786 81.9183 75.0625 82.3159C77.4075 83.2728 79.6448 84.7284 81.3699 86.595C82.2392 87.5384 82.9805 88.5695 83.4724 89.7622C84.0856 91.2582 83.8902 92.6329 83.9374 94.203C84.1597 102.66 96.2895 103.482 102.401 103.657C105.03 103.732 105.36 99.6345 102.711 99.5603L102.705 99.5469Z" fill="#161616"/>
</svg>
