<svg width="41" height="40" viewBox="0 0 41 40" fill="none" xmlns="http://www.w3.org/2000/svg">
<path d="M20.1979 25.8335C23.8813 25.8335 26.8646 22.8502 26.8646 19.1668V10.0002C26.8646 6.31683 23.8813 3.3335 20.1979 3.3335C16.5146 3.3335 13.5312 6.31683 13.5312 10.0002V19.1668C13.5312 22.8502 16.5146 25.8335 20.1979 25.8335Z" stroke="#161616" stroke-width="2.5" stroke-linecap="round" stroke-linejoin="round"/>
<path d="M7.45312 16.084V18.9173C7.45312 25.9507 13.1698 31.6673 20.2031 31.6673C27.2365 31.6673 32.9531 25.9507 32.9531 18.9173V16.084" stroke="#161616" stroke-width="2.5" stroke-linecap="round" stroke-linejoin="round"/>
<path d="M17.8828 10.7152C19.3828 10.1652 21.0161 10.1652 22.5161 10.7152" stroke="#161616" stroke-width="2.5" stroke-linecap="round" stroke-linejoin="round"/>
<path d="M18.8633 14.2507C19.7466 14.0174 20.6633 14.0174 21.5466 14.2507" stroke="#161616" stroke-width="2.5" stroke-linecap="round" stroke-linejoin="round"/>
<path d="M20.1992 31.6665V36.6665" stroke="#161616" stroke-width="2.5" stroke-linecap="round" stroke-linejoin="round"/>
</svg>
