<svg width="41" height="40" viewBox="0 0 41 40" fill="none" xmlns="http://www.w3.org/2000/svg">
<path d="M30.5945 11.9325C30.4945 11.9159 30.3779 11.9159 30.2779 11.9325C27.9779 11.8492 26.1445 9.96586 26.1445 7.63252C26.1445 5.24919 28.0612 3.33252 30.4445 3.33252C32.8279 3.33252 34.7445 5.26586 34.7445 7.63252C34.7279 9.96586 32.8945 11.8492 30.5945 11.9325Z" stroke="#161616" stroke-width="2.5" stroke-linecap="round" stroke-linejoin="round"/>
<path d="M28.8781 24.0661C31.1615 24.4495 33.6781 24.0495 35.4448 22.8661C37.7948 21.2995 37.7948 18.7328 35.4448 17.1661C33.6615 15.9828 31.1115 15.5828 28.8281 15.9828" stroke="#161616" stroke-width="2.5" stroke-linecap="round" stroke-linejoin="round"/>
<path d="M10.5484 11.9325C10.6484 11.9159 10.7651 11.9159 10.8651 11.9325C13.1651 11.8492 14.9984 9.96586 14.9984 7.63252C14.9984 5.24919 13.0818 3.33252 10.6984 3.33252C8.31511 3.33252 6.39844 5.26586 6.39844 7.63252C6.4151 9.96586 8.24844 11.8492 10.5484 11.9325Z" stroke="#161616" stroke-width="2.5" stroke-linecap="round" stroke-linejoin="round"/>
<path d="M12.2667 24.0661C9.98333 24.4495 7.46667 24.0495 5.7 22.8661C3.35 21.2995 3.35 18.7328 5.7 17.1661C7.48333 15.9828 10.0333 15.5828 12.3167 15.9828" stroke="#161616" stroke-width="2.5" stroke-linecap="round" stroke-linejoin="round"/>
<path d="M20.5906 24.3837C20.4906 24.367 20.374 24.367 20.274 24.3837C17.974 24.3004 16.1406 22.417 16.1406 20.0837C16.1406 17.7004 18.0573 15.7837 20.4406 15.7837C22.824 15.7837 24.7406 17.717 24.7406 20.0837C24.724 22.417 22.8906 24.317 20.5906 24.3837Z" stroke="#161616" stroke-width="2.5" stroke-linecap="round" stroke-linejoin="round"/>
<path d="M15.743 29.6346C13.393 31.2012 13.393 33.7679 15.743 35.3346C18.4096 37.1179 22.7763 37.1179 25.443 35.3346C27.793 33.7679 27.793 31.2012 25.443 29.6346C22.793 27.8679 18.4096 27.8679 15.743 29.6346Z" stroke="#161616" stroke-width="2.5" stroke-linecap="round" stroke-linejoin="round"/>
</svg>
