<svg width="41" height="40" viewBox="0 0 41 40" fill="none" xmlns="http://www.w3.org/2000/svg">
<path d="M30.8008 31.4335H29.5341C28.2008 31.4335 26.9341 31.9502 26.0008 32.8835L23.1507 35.7002C21.8507 36.9835 19.7341 36.9835 18.4341 35.7002L15.5841 32.8835C14.6508 31.9502 13.3674 31.4335 12.0508 31.4335H10.8008C8.03411 31.4335 5.80078 29.2168 5.80078 26.4835V8.2835C5.80078 5.55016 8.03411 3.3335 10.8008 3.3335H30.8008C33.5674 3.3335 35.8008 5.55016 35.8008 8.2835V26.4668C35.8008 29.2002 33.5674 31.4335 30.8008 31.4335Z" stroke="#161616" stroke-width="2.5" stroke-miterlimit="10" stroke-linecap="round" stroke-linejoin="round"/>
<path d="M20.9185 14.918C20.8519 14.918 20.7518 14.918 20.6685 14.918C18.9185 14.8513 17.5352 13.4346 17.5352 11.668C17.5352 9.86797 18.9852 8.41797 20.7852 8.41797C22.5852 8.41797 24.0352 9.88464 24.0352 11.668C24.0519 13.4346 22.6685 14.868 20.9185 14.918Z" stroke="#161616" stroke-width="2.5" stroke-linecap="round" stroke-linejoin="round"/>
<path d="M16.2172 19.9351C14.0005 21.4184 14.0005 23.8351 16.2172 25.3184C18.7339 27.0017 22.8672 27.0017 25.3839 25.3184C27.6005 23.8351 27.6005 21.4184 25.3839 19.9351C22.8672 18.2684 18.7505 18.2684 16.2172 19.9351Z" stroke="#161616" stroke-width="2.5" stroke-linecap="round" stroke-linejoin="round"/>
</svg>
